<svg width="358" height="78" viewBox="0 0 358 78" fill="none" xmlns="http://www.w3.org/2000/svg">
<path d="M360 3.39057L288.5 30.8906L261.544 41.6636L249 48.8906L223.5 47.2916L185.5 47.8906H97L14 37.8906L0 56.3906V3.39057L42.5 25.8906L121 30.8906H228.5L301 16.8906L360 3.39057Z" fill="#C4C4C4"/>
<path d="M360 3.39057L288.5 30.8906L261.544 41.6636L249 48.8906L223.5 47.2916L185.5 47.8906H97L14 37.8906L0 56.3906V3.39057L42.5 25.8906L121 30.8906H228.5L301 16.8906L360 3.39057Z" fill="#C4C4C4"/>
<path d="M360 3.39057L288.5 30.8906L261.544 41.6636L249 48.8906L223.5 47.2916L185.5 47.8906H97L14 37.8906L0 56.3906V3.39057L42.5 25.8906L121 30.8906H228.5L301 16.8906L360 3.39057Z" fill="#C4C4C4"/>
<path d="M267.913 73.1382C265.403 75.0954 259.135 71.2541 253.913 64.5583C248.69 57.8626 246.491 50.8478 249 48.8906C251.509 46.9333 257.777 50.7746 263 57.4704C268.223 64.1662 270.422 71.1809 267.913 73.1382Z" fill="#C4C4C4"/>
<path d="M49.7286 72.5842C46.5648 72.2405 44.7434 65.1183 45.6605 56.6762C46.5776 48.2342 49.8859 41.6692 53.0497 42.0129C56.2136 42.3566 58.0349 49.4789 57.1178 57.9209C56.2007 66.3629 52.8925 72.9279 49.7286 72.5842Z" fill="#C4C4C4"/>
<path d="M203.729 33.5842C200.565 33.2405 198.743 26.1183 199.661 17.6762C200.578 9.2342 203.886 2.6692 207.05 3.0129C210.214 3.3566 212.035 10.4789 211.118 18.9209C210.201 27.3629 206.892 33.9279 203.729 33.5842Z" fill="#C4C4C4"/>
<path d="M101.729 30.5842C98.5648 30.2405 96.7434 23.1183 97.6605 14.6762C98.5776 6.2342 101.886 -0.330799 105.05 0.0129027C108.214 0.356605 110.035 7.47885 109.118 15.9209C108.201 24.3629 104.892 30.9279 101.729 30.5842Z" fill="#C4C4C4"/>
<path d="M340.176 41.6636C337.066 42.341 333.08 36.164 331.273 27.8669C329.465 19.5698 330.521 12.2945 333.63 11.6171C336.74 10.9397 340.726 17.1167 342.533 25.4138C344.341 33.7109 343.285 40.9862 340.176 41.6636Z" fill="#C4C4C4"/>
<path d="M158.192 77.9021C155.024 77.598 153.114 70.499 153.925 62.0462C154.737 53.5934 157.963 46.9875 161.131 47.2916C164.298 47.5957 166.209 54.6946 165.397 63.1474C164.586 71.6003 161.36 78.2062 158.192 77.9021Z" fill="#C4C4C4"/>
</svg>
