<svg width="428" height="90" viewBox="0 0 428 90" fill="none" xmlns="http://www.w3.org/2000/svg">
<path d="M428 3.91661L342.994 35.6832L310.946 48.1276L296.033 56.4758L265.717 54.6287L220.539 55.3207H115.322L16.6444 43.7692L0 65.1394V3.91661L50.5278 29.9074L143.856 35.6832H271.661L357.856 19.5111L428 3.91661Z" fill="#C4C4C4"/>
<path d="M428 3.91661L342.994 35.6832L310.946 48.1276L296.033 56.4758L265.717 54.6287L220.539 55.3207H115.322L16.6444 43.7692L0 65.1394V3.91661L50.5278 29.9074L143.856 35.6832H271.661L357.856 19.5111L428 3.91661Z" fill="#C4C4C4"/>
<path d="M428 3.91661L342.994 35.6832L310.946 48.1276L296.033 56.4758L265.717 54.6287L220.539 55.3207H115.322L16.6444 43.7692L0 65.1394V3.91661L50.5278 29.9074L143.856 35.6832H271.661L357.856 19.5111L428 3.91661Z" fill="#C4C4C4"/>
<path d="M318.518 84.4853C315.535 86.7463 308.083 82.309 301.874 74.5744C295.665 66.8398 293.05 58.7367 296.033 56.4758C299.017 54.2148 306.469 58.6521 312.678 66.3868C318.887 74.1214 321.502 82.2244 318.518 84.4853Z" fill="#C4C4C4"/>
<path d="M59.1218 83.8455C55.3604 83.4484 53.195 75.2212 54.2853 65.4694C55.3756 55.7176 59.3088 48.1341 63.0702 48.5311C66.8317 48.9281 68.9971 57.1554 67.9068 66.9072C66.8164 76.6589 62.8833 84.2425 59.1218 83.8455Z" fill="#C4C4C4"/>
<path d="M242.211 38.7947C238.449 38.3977 236.284 30.1704 237.374 20.4186C238.465 10.6669 242.398 3.08332 246.159 3.48035C249.921 3.87737 252.086 12.1046 250.996 21.8564C249.905 31.6082 245.972 39.1917 242.211 38.7947Z" fill="#C4C4C4"/>
<path d="M120.944 35.3293C117.183 34.9322 115.017 26.705 116.108 16.9532C117.198 7.20141 121.131 -0.382122 124.892 0.0149045C128.654 0.411931 130.819 8.63917 129.729 18.391C128.639 28.1428 124.706 35.7263 120.944 35.3293Z" fill="#C4C4C4"/>
<path d="M404.431 48.1276C400.734 48.9101 395.995 41.7747 393.847 32.1904C391.698 22.606 392.952 14.202 396.649 13.4195C400.346 12.637 405.085 19.7723 407.234 29.3567C409.383 38.9411 408.128 47.3451 404.431 48.1276Z" fill="#C4C4C4"/>
<path d="M188.073 89.9883C184.307 89.6371 182.036 81.4368 183 71.6725C183.965 61.9082 187.8 54.2775 191.566 54.6287C195.333 54.98 197.604 63.1803 196.639 72.9446C195.674 82.7089 191.839 90.3396 188.073 89.9883Z" fill="#C4C4C4"/>
</svg>
