<svg width="428" height="90" viewBox="0 0 428 90" fill="none" xmlns="http://www.w3.org/2000/svg">
<path d="M-6.67572e-06 3.91661L85.0056 35.6832L128.994 53.1368L207.461 55.3207H312.678L411.356 43.7692L428 65.1394V3.91661L377.472 29.9074L284.144 35.6832H156.339L70.1444 19.5111L-6.67572e-06 3.91661Z" fill="#C4C4C4"/>
<path d="M-6.67572e-06 3.91661L85.0056 35.6832L128.994 53.1368L207.461 55.3207H312.678L411.356 43.7692L428 65.1394V3.91661L377.472 29.9074L284.144 35.6832H156.339L70.1444 19.5111L-6.67572e-06 3.91661Z" fill="#C4C4C4"/>
<path d="M-6.67572e-06 3.91661L85.0056 35.6832L128.994 53.1368L207.461 55.3207H312.678L411.356 43.7692L428 65.1394V3.91661L377.472 29.9074L284.144 35.6832H156.339L70.1444 19.5111L-6.67572e-06 3.91661Z" fill="#C4C4C4"/>
<path d="M106.509 81.1463C109.493 83.4073 116.945 78.97 123.154 71.2354C129.363 63.5007 131.978 55.3977 128.994 53.1368C126.011 50.8758 118.559 55.3131 112.35 63.0477C106.141 70.7823 103.526 78.8854 106.509 81.1463Z" fill="#C4C4C4"/>
<path d="M368.878 83.8455C372.64 83.4484 374.805 75.2212 373.715 65.4694C372.624 55.7176 368.691 48.1341 364.93 48.5311C361.168 48.9281 359.003 57.1554 360.093 66.9072C361.184 76.6589 365.117 84.2425 368.878 83.8455Z" fill="#C4C4C4"/>
<path d="M185.789 38.7947C189.551 38.3977 191.716 30.1704 190.626 20.4186C189.535 10.6669 185.602 3.08332 181.841 3.48035C178.079 3.87737 175.914 12.1046 177.004 21.8564C178.095 31.6082 182.028 39.1917 185.789 38.7947Z" fill="#C4C4C4"/>
<path d="M307.056 35.3293C310.817 34.9322 312.983 26.705 311.892 16.9532C310.802 7.20141 306.869 -0.382122 303.108 0.0149045C299.346 0.411931 297.181 8.63917 298.271 18.391C299.361 28.1428 303.294 35.7263 307.056 35.3293Z" fill="#C4C4C4"/>
<path d="M23.5688 48.1276C27.2656 48.9101 32.0046 41.7747 34.1535 32.1904C36.3024 22.606 35.0475 14.202 31.3506 13.4195C27.6537 12.637 22.9148 19.7723 20.7659 29.3567C18.617 38.9411 19.8719 47.3451 23.5688 48.1276Z" fill="#C4C4C4"/>
<path d="M239.927 89.9883C243.693 89.6371 245.964 81.4368 245 71.6725C244.035 61.9082 240.2 54.2775 236.434 54.6287C232.667 54.98 230.396 63.1803 231.361 72.9446C232.326 82.7089 236.161 90.3396 239.927 89.9883Z" fill="#C4C4C4"/>
</svg>
