<svg width="360" height="77" viewBox="0 0 360 77" fill="none" xmlns="http://www.w3.org/2000/svg">
<path d="M0 3.39057L71.5 30.8906L108.5 46L174.5 47.8906H263L346 37.8906L360 56.3906V3.39057L317.5 25.8906L239 30.8906H131.5L59 16.8906L0 3.39057Z" fill="#C4C4C4"/>
<path d="M0 3.39057L71.5 30.8906L108.5 46L174.5 47.8906H263L346 37.8906L360 56.3906V3.39057L317.5 25.8906L239 30.8906H131.5L59 16.8906L0 3.39057Z" fill="#C4C4C4"/>
<path d="M0 3.39057L71.5 30.8906L108.5 46L174.5 47.8906H263L346 37.8906L360 56.3906V3.39057L317.5 25.8906L239 30.8906H131.5L59 16.8906L0 3.39057Z" fill="#C4C4C4"/>
<path d="M89.5873 70.2476C92.0967 72.2049 98.3648 68.3636 103.587 61.6678C108.81 54.972 111.009 47.9573 108.5 46C105.991 44.0427 99.7226 47.884 94.5 54.5798C89.2774 61.2756 87.0779 68.2903 89.5873 70.2476Z" fill="#C4C4C4"/>
<path d="M310.271 72.5842C313.435 72.2405 315.257 65.1183 314.339 56.6762C313.422 48.2342 310.114 41.6692 306.95 42.0129C303.786 42.3566 301.965 49.4789 302.882 57.9209C303.799 66.3629 307.108 72.9279 310.271 72.5842Z" fill="#C4C4C4"/>
<path d="M156.271 33.5842C159.435 33.2405 161.257 26.1183 160.339 17.6762C159.422 9.2342 156.114 2.6692 152.95 3.0129C149.786 3.3566 147.965 10.4789 148.882 18.9209C149.799 27.3629 153.108 33.9279 156.271 33.5842Z" fill="#C4C4C4"/>
<path d="M258.271 30.5842C261.435 30.2405 263.257 23.1183 262.339 14.6762C261.422 6.2342 258.114 -0.330799 254.95 0.0129027C251.786 0.356605 249.965 7.47885 250.882 15.9209C251.799 24.3629 255.108 30.9279 258.271 30.5842Z" fill="#C4C4C4"/>
<path d="M19.8242 41.6636C22.9337 42.341 26.9197 36.164 28.7272 27.8669C30.5347 19.5698 29.4792 12.2945 26.3697 11.6171C23.2602 10.9397 19.2741 17.1167 17.4666 25.4138C15.6592 33.7109 16.7147 40.9862 19.8242 41.6636Z" fill="#C4C4C4"/>
<path d="M201.808 77.9021C204.976 77.598 206.886 70.499 206.075 62.0462C205.263 53.5934 202.037 46.9875 198.869 47.2916C195.702 47.5957 193.791 54.6946 194.603 63.1474C195.414 71.6003 198.64 78.2062 201.808 77.9021Z" fill="#C4C4C4"/>
</svg>
